PathFileType	4	(X/Y/Z)	c:/Users/goper/Files/vsCode/490R/osim_files/A04/A04_Fast_01.trc
DataRate	CameraRate	NumFrames	NumMarkers	Units                	OrigDataRate	OrigDataStartFrame	OrigNumFrames
120.00	120.00	5	36	mm	120.0	1667	1905
                Frame#	Time	LPSIS			LASIS			LTH1			LTH2			LTH3			LTH4			LLFE			LMFE			LSH1			LSH2			LSH3			LSH4			LLMAL			LMMAL			LCAL			LMTP5			LTOE			LMTP1			RPSIS			RASIS			RTH1			RTH2			RTH3			RTH4			RLFE			RMFE			RSH1			RSH2			RSH3			RSH4			RLMAL			RMMAL			RCAL			RMTP1			RTOE			RMTP5		
		X1	Y1	Z1	X2	Y2	Z2	X3	Y3	Z3	X4	Y4	Z4	X5	Y5	Z5	X6	Y6	Z6	X7	Y7	Z7	X8	Y8	Z8	X9	Y9	Z9	X10	Y10	Z10	X11	Y11	Z11	X12	Y12	Z12	X13	Y13	Z13	X14	Y14	Z14	X15	Y15	Z15	X16	Y16	Z16	X17	Y17	Z17	X18	Y18	Z18	X19	Y19	Z19	X20	Y20	Z20	X21	Y21	Z21	X22	Y22	Z22	X23	Y23	Z23	X24	Y24	Z24	X25	Y25	Z25	X26	Y26	Z26	X27	Y27	Z27	X28	Y28	Z28	X29	Y29	Z29	X30	Y30	Z30	X31	Y31	Z31	X32	Y32	Z32	X33	Y33	Z33	X34	Y34	Z34	X35	Y35	Z35	X36	Y36	Z36

1667	13.88333	-2953.64111	1039.06982	375.79553	-3178.42944	986.33783	452.69083	-3007.41772	693.59473	477.94049	-2998.41113	649.38214	472.79257	-3066.33984	679.72461	470.45844	-3046.86768	636.48438	463.10333	-2977.45020	522.53400	459.31345	-3001.73047	522.68176	321.40479	-2917.59180	433.97324	455.61487	-2912.78833	391.06894	451.87286	-2977.90796	421.37827	448.79102	-2962.19946	378.33624	442.60013	-2802.85498	124.88268	395.57693	-2830.64209	126.40183	311.29807	-2740.06616	89.86578	335.84448	-2936.94873	63.19953	436.90732	-2989.83105	73.54591	379.57596	-2973.18774	59.45805	333.58847	-2948.57056	1023.30438	270.39410	0.00000	0.00000	0.00000	-3172.07886	699.22760	134.13025	-3193.85083	662.53564	134.21251	-3228.60620	725.16522	122.46038	-3246.66992	681.17810	126.52940	0.00000	0.00000	0.00000	-3303.21680	554.95953	278.43808	0.00000	0.00000	0.00000	0.00000	0.00000	0.00000	-3387.70312	355.67303	148.11224	-3402.98779	309.82169	152.34346	0.00000	0.00000	0.00000	-3484.29102	143.32639	278.18802	-3424.22119	49.34454	229.93013	-3625.87720	146.30820	239.22643	-3631.10156	177.89110	194.08641	0.00000	0.00000	0.00000
1668	13.89167	-2965.24219	1036.93726	374.19943	-3190.22290	984.90155	451.98077	-3016.98071	692.58289	477.40720	-3008.58545	648.23993	472.68594	-3076.00879	678.41150	469.84338	-3058.67310	634.74817	462.50143	-2985.70508	521.55981	459.08298	-3010.12720	521.31427	321.17642	-2924.51831	434.14651	455.59933	-2918.89478	391.17307	451.80399	-2984.57544	420.77222	448.66299	-2968.14209	377.75058	442.49878	-2804.45825	126.27417	396.17538	-2832.96387	127.91239	311.60959	-2741.33911	92.24001	336.16818	-2937.08130	62.62128	437.04517	-2990.24731	73.33680	379.41119	-2973.49585	59.31900	333.75897	-2959.77612	1021.76434	268.55325	0.00000	0.00000	0.00000	-3185.22852	698.15442	133.38586	0.00000	0.00000	0.00000	-3241.87085	724.32727	122.14628	-3260.21582	680.43878	126.44545	0.00000	0.00000	0.00000	-3317.03564	555.37305	279.35562	-3338.64307	335.85947	158.39055	0.00000	0.00000	0.00000	-3395.80884	356.49118	148.31535	-3411.10669	310.77161	153.34825	0.00000	0.00000	0.00000	-3484.56177	139.74797	279.43585	-3419.70703	51.32725	227.67104	-3628.34302	141.29135	243.05431	-3635.22583	172.79166	198.14024	0.00000	0.00000	0.00000
1669	13.90000	-2977.95508	1034.58862	372.79633	-3201.98877	983.32117	451.35095	-3027.15479	691.71930	477.08691	-3018.31445	647.39172	472.28897	-3085.90552	677.04492	469.25684	-3068.31982	633.60913	462.01428	-2992.87329	519.99469	458.51266	-3016.90088	520.02606	321.05951	-2931.75854	434.31934	455.50595	-2925.19507	391.33328	451.66739	-2991.46484	420.10104	448.56213	-2974.45117	377.34543	442.19916	-2805.89673	128.68575	396.42099	-2834.74634	129.55121	311.73138	-2742.03687	95.30257	336.35199	-2937.68188	62.58776	437.39828	-2990.62744	72.76182	379.56870	-2973.88452	59.12262	333.96463	-2972.29932	1019.67407	267.07739	0.00000	0.00000	0.00000	-3198.62451	697.19604	132.66199	-3221.26855	660.72504	133.45583	-3255.36182	723.68213	121.76131	-3273.70532	679.82538	126.30704	0.00000	0.00000	0.00000	-3327.19092	554.50104	278.31448	0.00000	0.00000	0.00000	0.00000	0.00000	0.00000	-3404.64697	357.96005	149.73399	-3418.35571	312.37076	153.74658	0.00000	0.00000	0.00000	-3486.96094	140.06581	281.09088	-3423.59375	50.60816	228.04764	-3630.09497	138.29634	247.22162	-3637.71582	170.03555	202.61568	0.00000	0.00000	0.00000
1670	13.90833	-2988.45557	1032.94812	371.13919	-3213.69678	981.68915	450.66315	-3037.40112	690.84113	476.58826	-3028.04419	646.51160	471.75476	-3095.98584	675.61877	468.63290	-3075.88623	633.05518	461.56464	-3002.00269	519.00446	458.34384	-3024.49097	518.69611	320.44843	-2939.35840	434.47101	455.36130	-2931.91895	391.54871	451.53922	-2997.78735	416.69266	446.21237	-2981.01855	376.53543	442.19440	-2807.89600	130.96283	396.78857	-2836.69922	131.42662	311.92426	-2743.92261	98.34180	336.61017	-2938.32251	62.60288	437.81555	-2991.16382	72.25036	379.80176	-2974.27734	58.93443	334.13617	-2984.40698	1017.99097	265.45764	0.00000	0.00000	0.00000	0.00000	0.00000	0.00000	-3235.35840	659.61731	133.08900	-3268.60962	723.21704	121.27409	-3284.86792	677.05756	127.18400	0.00000	0.00000	0.00000	-3339.86768	554.73950	277.28635	-3354.08618	339.93396	156.28822	0.00000	0.00000	0.00000	-3413.02783	358.38354	149.91278	-3425.82080	313.04181	153.63263	0.00000	0.00000	0.00000	-3487.38159	137.18355	282.15836	-3420.96899	51.60005	227.33078	-3631.73779	135.07468	251.55141	-3640.15210	167.09061	207.15230	-3616.50415	133.61571	134.68515
1671	13.91667	-3000.22192	1031.03687	369.71066	-3225.41650	980.04321	449.95755	-3047.70557	689.89545	475.75946	-3038.16187	645.65918	471.10715	-3106.33154	674.23651	468.15775	-3085.93750	631.96552	461.03870	-3013.41113	518.74182	458.47678	-3035.48315	517.05017	320.44958	-2947.38940	434.70328	455.06934	-2939.06567	391.70410	451.27475	-3005.84644	416.07617	446.12930	-2987.92285	376.01413	442.01172	-2809.72876	133.43558	396.97879	-2837.97241	133.46849	311.94781	-2744.95166	102.15884	336.77853	-2939.28442	63.30993	438.22241	-2992.63184	72.75575	379.94391	-2974.65088	58.84953	334.35989	-2995.85205	1016.75818	263.69086	0.00000	0.00000	0.00000	0.00000	0.00000	0.00000	-3247.68677	659.81287	132.22469	-3281.45630	722.97400	121.09692	-3297.58203	676.70258	126.60659	0.00000	0.00000	0.00000	-3352.48340	554.77423	275.32227	0.00000	0.00000	0.00000	0.00000	0.00000	0.00000	-3422.00146	356.93570	149.55368	-3434.03320	311.86923	152.92569	0.00000	0.00000	0.00000	-3490.59546	134.97708	282.67575	-3422.68799	50.84689	226.23195	-3634.73755	129.76064	255.28905	-3645.23950	162.14685	211.53188	-3622.47559	128.51521	138.43419
